# xmcd
#
# Track frame offsets:
#	150
#	19098
#	48570
#	66060
#	81441
#	118908
#
# Disc length: 1761 seconds
#
# Revision: 1
# Processed by: cddbd v1.5.2PL0 Copyright (c) Steve Scherf et al.
# Submitted via: audiograbber 1.83.01
#
DISCID=4f06df06
DTITLE=Johnny Cash - The Johnny Cash Show
DYEAR=1970
DGENRE=Country
TTITLE0=Sunday Morning Coming Down
TTITLE1=Come Along And Ride This Train(Medley)
TTITLE2=These Hands
TTITLE3=I'm Gonna Try To Be That Way
TTITLE4=Come Along And Ride This Train(Medley)
TTITLE5=Here Was A Man(Dialogue)
EXTD=
EXTT0=
EXTT1=
EXTT2=
EXTT3=
EXTT4=
EXTT5=
PLAYORDER=
